<?xml version="1.0" encoding="utf-8"?>
<!-- Svg Vector Icons : http://www.onlinewebfonts.com/icon -->
<!DOCTYPE svg PUBLIC "-//W3C//DTD SVG 1.1//EN" "http://www.w3.org/Graphics/SVG/1.1/DTD/svg11.dtd">
<svg version="1.1" xmlns="http://www.w3.org/2000/svg" xmlns:xlink="http://www.w3.org/1999/xlink" x="0px" y="0px" viewBox="0 0 1000 1000" enable-background="new 0 0 1000 1000" xml:space="preserve">
<metadata> Svg Vector Icons : http://www.onlinewebfonts.com/icon </metadata>
<g><path d="M500,990c-121.5,0-235.8-47.3-321.7-133.3C92.3,770.8,45,656.5,45,535c0-121.5,47.3-235.8,133.3-321.7C264.2,127.3,378.5,80,500,80c121.5,0,235.8,47.3,321.7,133.3C907.7,299.2,955,413.5,955,535c0,121.5-47.3,235.8-133.3,321.7C735.8,942.7,621.5,990,500,990z M500,147c-213.9,0-388,174.1-388,388c0,213.9,174.1,388,388,388c213.9,0,388-174.1,388-388C888,321.1,713.9,147,500,147z"/><path d="M499.9,615.2c-44.4,0-80.4-36.1-80.4-80.4c0-44.4,36.1-80.4,80.4-80.4c44.4,0,80.4,36.1,80.4,80.4C580.4,579.1,544.3,615.2,499.9,615.2z M499.9,485c-27.5,0-49.8,22.3-49.8,49.8c0,27.5,22.3,49.8,49.8,49.8c27.5,0,49.8-22.3,49.8-49.8C549.7,507.3,527.4,485,499.9,485z"/><path d="M728.6,327.6l14.8,17.6L392.1,640.8l-14.8-17.6L728.6,327.6L728.6,327.6z"/><path d="M445.4,534.8c0,30.1,24.4,54.5,54.5,54.5c30.1,0,54.5-24.4,54.5-54.5c0-30.1-24.4-54.5-54.5-54.5C469.8,480.3,445.4,504.7,445.4,534.8z"/><path d="M365,10h270v38.3H365V10z"/><path d="M798.8,91.4L932.4,225l-27.1,27.1L771.7,118.4L798.8,91.4z"/></g>
</svg>